<?xml version="1.0" encoding="UTF-8"?>
<svg id="Livello_1" data-name="Livello 1" xmlns="http://www.w3.org/2000/svg" viewBox="0 0 384.57 421.43">
  <defs>
    <style>
      .cls-1 {
        fill: #cbd500;
      }
    </style>
  </defs>
  <path d="M263.35,160.16c4.68,4.33,9.44,8.21,14.82,11.43,4.47,2.67,9.16,5.05,14.19,6.42l18.14,4.95c2.89.79,5.45,1.99,8.74,2.34l-28.07-43.16c-4.97-7.64-9.56-15.34-12.66-23.98l43.51,63.6,5.49,8.41,17.66,11.09c9.51,5.97,42.86,24.84,39.13,38.93-1.35,5.09-7.26,5.36-10.94,3.82-4.47-1.88-8.33-4.45-11.87-7.75-4.35-4.06-8.27-8.2-12.14-12.74l-13.21-15.54-8.29-10.17c-9.63-4.88-19.76-8.23-30.36-10.6-6.87-1.53-12.97-3.75-19.34-6.69-12.57-5.8-26.73-12.04-32.68-25.57-4.91-11.16-10.43-29.87-12.39-41.77l-1.85-11.24c-1.91-11.59-7.73-26.28-19.81-30.8-12.23-4.58-24.84-7.21-37.9-7.26l-35.52-.13c-1.45,0-2.96.33-4.32.15l-3.52-.47c5.27-1.42,10.22-1.49,15.43-1.81l4.25-.26,15.9-1.36c16.48-1.41,26.89-5.2,41.37-12.78,8.49-4.44,15.7-11.32,25.69-12.56,2.88-.36,5.95-.19,8.84.04,6.13.48,11.4,3.09,15.79,7.25s6.69,9.09,8.93,14.56l6.67,16.27c2.48-3.4,4.3-6.43,6.67-9.34,5.47-6.73,11.14-12.96,17.41-19,6.74-6.5,13.23-12.71,20.79-18.29,8.55-6.31,17.27-11.86,26.35-17.33,3.23-1.94,6.42-3.37,9.8-4.93,7.21-3.31,15.47-5.36,23.12-2.67,3.46,1.21,1.02,6.42-.38,9.79l-16.87,40.61-7.08,15.11c-5.18,11.07-10.71,21.44-17.74,31.46-6.66,9.49-14.51,22.92-25.31,27.88-5.62,2.58-13.74,1.44-17.53-2.31-3.19-3.16-4.91-7.01-6.5-11.14-1.89-4.94-3.16-9.86-2.29-15.27.85,3.83,1.9,7.41,3.09,11.28,1.74,5.68,4.37,11.03,9.4,14.54,2.13,1.49,5.31,2.47,7.96,2.06,5.08-.78,11.68-7.61,14.78-11.59,8.88-11.42,14.95-21.9,21.19-34.86l9.93-20.63,6.55-13.57,18.47-41.41c-4.72-3.89-14.81.39-19.49,2.49-7.44,3.33-13.99,7.63-20.6,12.38-7.05,5.07-13.69,10.1-19.8,16.33l-17.04,17.38c-9.95,10.15-19.89,27.39-24.01,31.34-2.11,2.02-6.84,1.68-8.62-.48-1.64-1.99-1.85-4.6-2.39-6.97-1.26-5.42-3.2-10.4-5.77-15.31-1.98-3.8-3.79-7.46-6.55-10.73-6.55-7.77-17.31-10.86-26.83-7.04-4.6,1.85-11.83,7.11-15.12,8.52-11.8,5.05-24.18,7.94-36.84,9.92l-3.97.62c3.04.28,6,0,9.25-.1,11.69-.34,24.37-.98,35.31,2.9,4.03,1.43,7.67,3.45,11.37,5.46,7.22,3.9,12.08,10.04,15.14,17.58,2.45,6.03,4.04,12.23,4.93,18.78.45,3.32.79,6.47,1.48,9.73,2.08,9.82,4.65,19.26,7.96,28.72,2.1,5.99,5.32,11.04,10.11,15.48ZM366.05,223.29l-11.52-9.59c-5.73-3.65-11.11-7.52-17.79-10.56,6.1,9,12.87,16.74,20.01,24.45,4.99,5.39,14.65,15.42,22.16,15.4,4.89-4.27-9.95-16.66-12.86-19.7Z"/>
  <g>
    <path class="cls-1" d="M53.61,410.43l-15.21-65.26h-17.06v.92c2.04,0,3.48.39,4.33,1.17.85.78,1.28,1.95,1.28,3.52,0,.24-.04.81-.11,1.71-.07.9-17.38,55.59-17.38,55.59-.38,1.18-.77,2.22-1.17,3.09s-.86,1.61-1.39,2.2c-.52.59-1.16,1.05-1.92,1.39s-3.91.55-4.99.64v.78h17.38v-.78c-.95,0-4.02-.12-4.78-.36-.76-.24-1.4-.61-1.92-1.14-.52-.47-.84-.96-.96-1.46-.12-.5-.18-.91-.18-1.24,0-.57.1-1.16.29-1.78.05-.19.31-1.05.78-2.6.47-1.54,7.47-23.34,7.93-24.74.45-1.4.67-2.12.67-2.17.66-2.13,1.3-4.17,1.92-6.11.61-1.94,1.21-3.81,1.78-5.62.47-1.56.97-3.13,1.49-4.69.52-1.56.99-3.03,1.42-4.41s.82-2.6,1.17-3.66.6-1.88.75-2.45c.14.62,4.92,19.62,6.92,26.94h-15.45c.99,0,2.38.23,4.16.67,1.78.45,3.61,1.23,5.51,2.35,1.89,1.11,3.65,2.63,5.26,4.55s2.77,4.35,3.48,7.29l3.2,13.29c.24,1.18.36,2.13.36,2.84,0,1.23-.36,2.27-1.07,3.13-.76.9-4.52,1.35-6.84,1.35v.78h29.04v-.78c-1.9,0-5.55-.37-6.52-1.1-.97-.73-1.7-2.02-2.17-3.87h0Z"/>
    <path class="cls-1" d="M92.76,346.02c.95,0,4.04.11,4.85.32.8.21,1.47.58,1.99,1.1.52.52.82,1.03.89,1.53s.11.89.11,1.17-.01.57-.04.85-.11.62-.25.99c0,0-16.59,52.39-17.06,53.95l-.85,2.42c-.05-.38-.24-1.16-.57-2.35l-12.44-52.67c-.1-.57-.18-1.09-.25-1.56-.07-.47-.11-.95-.11-1.42,0-1.14.36-2.18,1.07-3.13.71-.8,2.23-1.21,4.55-1.21v-.85h-24.6v.85c1.89,0,3.33.37,4.3,1.1.97.74,1.69,2.02,2.17,3.87,0,0,14.57,62.21,14.86,63.37.29,1.16.43,1.77.43,1.81h17.06v-.92c-2.32,0-3.91-.52-4.76-1.56-.47-.57-.74-1.15-.78-1.74-.05-.59-.07-1.01-.07-1.24,0-.43.02-.86.07-1.32.05-.45.12-.93.21-1.46.05-.24,17.2-54.59,17.2-54.59.38-1.23.76-2.29,1.14-3.16.38-.88.84-1.6,1.39-2.17.54-.57,1.18-1.01,1.92-1.32.73-.31,3.87-.53,4.96-.67v-.85h-17.38v.85h0Z"/>
    <path class="cls-1" d="M165.57,404.74c-.57,2.23-1.2,4.14-1.88,5.72-.69,1.59-1.47,2.81-2.35,3.66-.88.85-1.91,1.28-3.09,1.28h-19.48c-1.23,0-2.25-.1-3.06-.29-.81-.19-1.45-.52-1.92-.99s-.79-1.14-.96-1.99c-.17-.85-.25-1.92-.25-3.2v-14.15c0-2.42.39-4.51,1.17-6.29.78-1.78,1.8-3.23,3.06-4.37,1.26-1.14,2.69-1.99,4.3-2.56,1.61-.57,3.27-.85,4.98-.85,2.13,0,3.74.63,4.83,1.88,1.09,1.26,1.64,2.79,1.64,4.58v.71h.78v-15.21h-.78v.64c0,1.85-.52,3.41-1.56,4.69-1.04,1.28-2.7,1.92-4.98,1.92h-25.09c1.33-.38,2.68-.89,4.05-1.53s2.63-1.52,3.77-2.63,2.06-2.51,2.77-4.19,1.07-3.76,1.07-6.22v-12.87c0-2.27.4-3.92,1.21-4.94.8-1.02,2.46-1.53,4.98-1.53h17.77c1.18,0,2.22.43,3.09,1.28.88.85,1.66,2.06,2.35,3.63s1.32,3.46,1.88,5.69c.57,2.23,1.14,4.72,1.71,7.46l.78-.14-4.41-24.03-.78.21c.05.24.07.44.07.6v.6c0,.66-.12,1.27-.36,1.81-.24.55-.66,1.01-1.28,1.39-.62.33-1.3.52-2.06.57-.76.05-1.52.07-2.27.07h-40.87v.85c1.28,0,2.32.13,3.13.39.8.26,1.42.69,1.85,1.28s.72,1.35.89,2.27c.17.92.25,2.05.25,3.38v54.73c0,1.33-.07,2.44-.21,3.34s-.43,1.64-.85,2.2-1.04.99-1.85,1.28c-.81.29-1.87.45-3.2.5v.78h42.65c.76,0,1.5.04,2.24.11.73.07,1.41.3,2.02.67.61.33,1.04.77,1.28,1.32.24.54.36,1.15.36,1.81v.6c0,.17-.02.37-.07.6l.78.14,4.41-23.95-.78-.21c-.57,2.75-1.14,5.24-1.71,7.46h0Z"/>
    <path class="cls-1" d="M232.12,346.02v-.85h-18.87v.85h.29c1.8,0,5.56.52,6.84,1.56,1.28,1.04,1.92,2.7,1.92,4.98v38.81l-34.4-46.21h-16.28v.85c2.37,0,3.98.56,4.83,1.67.85,1.11,1.3,2.81,1.35,5.08v56.01c0,2.27-.64,3.95-1.92,5.01-1.28,1.07-5.07,1.6-6.91,1.6h-.29v.78h18.94v-.78h-.36c-1.8,0-5.56-.54-6.84-1.64-1.28-1.09-1.92-2.7-1.92-4.84v-56.01l40.94,54.73c1.89,2.56,2.84,5.4,2.84,8.53h.78v-63.69c0-2.13.63-3.74,1.88-4.83,1.26-1.09,5.01-1.64,6.81-1.64h.36,0Z"/>
    <path class="cls-1" d="M305.78,366.67c-1.92-4.48-4.55-8.39-7.89-11.73s-7.24-5.97-11.69-7.89c-4.45-1.92-9.22-2.88-14.29-2.88-3.94,0-7.82.63-11.66,1.88-3.84,1.26-7.35,2.96-10.52,5.12-3.17,2.16-5.85,4.67-8.03,7.53-2.18,2.87-3.55,5.91-4.12,9.13-.05.29-.08.57-.11.85-.02.29-.04.55-.04.78,0,1.38.33,2.69.99,3.95.66,1.26,1.75,2.38,3.27,3.38,1.52.95,3.25,1.67,5.19,2.17,1.94.5,3.98.82,6.11.96h-22.96c.99,0,1.81.15,2.45.46.64.31,1.16.76,1.56,1.35s.71,1.32.92,2.17c.21.85.41,1.8.6,2.84.76,4.36,2.23,8.42,4.41,12.19,2.18,3.77,4.87,7.04,8.07,9.81,3.2,2.77,6.82,4.95,10.88,6.54,4.05,1.59,8.38,2.38,12.97,2.38,5.07,0,9.83-.96,14.29-2.88,4.45-1.92,8.35-4.54,11.69-7.85,3.34-3.32,5.97-7.2,7.89-11.66s2.88-9.22,2.88-14.29-.96-9.85-2.88-14.32h0ZM295.55,393.97c-.73,4.24-2.02,8.04-3.87,11.41s-4.37,6.08-7.57,8.14c-3.2,2.06-7.26,3.09-12.19,3.09-4.31,0-7.95-.79-10.91-2.38s-5.39-3.71-7.29-6.36c-1.9-2.65-3.33-5.73-4.3-9.24-.97-3.51-1.63-7.16-1.95-10.95-.14-.85-.3-1.69-.46-2.52-.17-.83-.45-1.57-.85-2.24-.4-.66-.94-1.2-1.6-1.6-.66-.4-1.56-.6-2.7-.6h19.41c2.37,0,4.45.67,6.26,2.02,1.8,1.35,2.82,3.35,3.06,6.01,0-2.37.7-4.18,2.1-5.44,1.4-1.26,3.38-2.12,5.94-2.6-2.7-.47-4.69-1.36-5.97-2.67-1.28-1.3-1.97-3.09-2.06-5.37-.05,1.23-.29,2.32-.71,3.27-.43.95-.97,1.74-1.64,2.38-.66.64-1.44,1.13-2.31,1.46-.88.33-1.79.5-2.74.5-.76,0-1.42-.1-1.99-.29-2.04-.52-3.86-1.29-5.47-2.31s-2.96-2.22-4.05-3.59-1.82-2.72-2.2-4.05c-.38-1.33-.57-2.54-.57-3.63,0-.29.01-.58.04-.89.02-.31.06-.63.11-.96.52-2.7,1.41-5.21,2.67-7.53,1.26-2.32,2.84-4.36,4.76-6.11s4.17-3.13,6.75-4.12c2.58-.99,5.48-1.49,8.71-1.49,4.93,0,8.99,1.03,12.19,3.09s5.72,4.78,7.57,8.14c1.85,3.36,3.14,7.18,3.87,11.44s1.1,8.6,1.1,13.01-.37,8.73-1.1,12.97h0Z"/>
    <path class="cls-1" d="M368.45,413.81c-.94-.43-4.49-1.98-7.81-4.89-6.14-5.38-14.48-29.76-14.48-29.76,1.75-.76,3.47-1.8,5.15-2.67,1.68-.88,3.19-1.91,4.51-3.09,1.33-1.18,2.44-2.57,3.34-4.16.9-1.59,1.49-3.5,1.78-5.72.05-.33.07-.64.07-.92v-.85c0-2.08-.38-4.18-1.14-6.29-.76-2.11-2.04-4.02-3.84-5.72-1.8-1.75-4.03-3.11-6.68-4.09-2.66-.97-5.62-1.46-8.88-1.46h-31.9v.85c1.28,0,4.54.13,5.35.39.8.26,1.42.69,1.85,1.28.43.59.72,1.35.89,2.27s.25,2.05.25,3.38v54.73c0,1.33-.07,2.44-.21,3.34s-.43,1.64-.85,2.2c-.43.57-1.04.99-1.85,1.28-.81.29-4.09.45-5.42.5v.78h29.56v-.78c-2.47,0-4.67-.61-6.61-1.85-1.94-1.23-2.17-2.98-2.28-5.47-.15-3.22-.8-23.88-.6-27.14,6.53.26,10.36,7.54,11.73,10.76.19.48.38.97.57,1.47,0,.01,0,.02,0,.02h0c2.91,7.41,6.49,15.95,8.58,18.79,1.1,1.5,2.41,2.66,4.03,3.42h-4.39l.07.78h23.89v-.78c-.9,0-3.91-.26-4.67-.6h0ZM317.47,379.71c3.65-1.02,6.21-2.62,8-4.43,2.01-2.03,3.09-4.79,3.07-7.65-.01-1.66-.02-2.92-.02-3.27v-12.87c0-2.27.19-4.14,1.21-4.94,2.23-1.76,2.46-1.53,4.98-1.53h1.28c2.13,0,4.02.46,5.65,1.39,1.64.92,2.97,2.19,4.02,3.8.99,1.61,1.67,3.29,2.02,5.05.36,1.75,2.49,9.65-5.39,17.26-3.94,3.8-7.21,5.64-9.57,6.53-1.28.53-2.55.73-3.95.88h-.22s.02,0,.04.01c-4.7.36-11.12-.24-11.12-.24h0Z"/>
  </g>
</svg>